<svg xmlns="http://www.w3.org/2000/svg" viewBox="0 0 100 100">
  <!-- Fond -->
  <rect width="100" height="100" rx="15" fill="#4a6ee0" />
  
  <!-- Bulles de dialogue -->
  <path d="M25 30 C22 30, 20 32, 20 35 L20 55 C20 58, 22 60, 25 60 L32 60 L35 70 L38 60 L45 60 C48 60, 50 58, 50 55 L50 35 C50 32, 48 30, 45 30 Z" fill="#ffffff" />
  <path d="M75 50 C78 50, 80 52, 80 55 L80 75 C80 78, 78 80, 75 80 L68 80 L65 90 L62 80 L55 80 C52 80, 50 78, 50 75 L50 55 C50 52, 52 50, 55 50 Z" fill="#ffffff" />
  
  <!-- Texte "EN" et image dans les bulles -->
  <text x="35" y="45" font-family="Arial" font-size="16" font-weight="bold" text-anchor="middle" fill="#4a6ee0">EN</text>
  <rect x="60" y="60" width="10" height="10" fill="#4a6ee0" />
  
  <!-- Éléments décoratifs -->
  <circle cx="25" cy="20" r="5" fill="#ffcc00" />
  <circle cx="80" cy="25" r="7" fill="#ff6b6b" />
  <circle cx="15" cy="80" r="6" fill="#4ecdc4" />
  <path d="M70 38 L75 30 L80 38" fill="none" stroke="#ffffff" stroke-width="2" />
</svg>